<svg preserveAspectRatio="none" overflow="visible" style="display: block;" width="1436" height="3544" viewBox="0 0 1436 3544" fill="none" xmlns="http://www.w3.org/2000/svg">
<g id="Starfield">
<circle id="Star" cx="1325.5" cy="1036.5" r="1.5" fill="#F5F7FF"/>
<circle id="Star_2" cx="1082" cy="2713" r="1" fill="#F5F7FF"/>
<circle id="Star_3" cx="346.75" cy="1341.75" r="0.75" fill="#F5F7FF"/>
<circle id="Star_4" cx="984.5" cy="1679.5" r="1.5" fill="#F5F7FF"/>
<circle id="Star_5" cx="738.5" cy="3318.5" r="1.5" fill="#F5F7FF"/>
<circle id="Star_6" cx="1306.75" cy="1334.75" r="0.75" fill="#F5F7FF"/>
<circle id="Star_7" cx="428" cy="1537" r="1" fill="#F5F7FF"/>
<circle id="Star_8" cx="1262.75" cy="205.75" r="0.75" fill="#F5F7FF"/>
<circle id="Star_9" cx="277" cy="3267" r="1" fill="#64D2FF"/>
<circle id="Star_10" cx="1329.75" cy="1847.75" r="0.75" fill="#64D2FF"/>
<circle id="Star_11" cx="609" cy="1192" r="1" fill="#F5F7FF"/>
<circle id="Star_12" cx="657.75" cy="3101.75" r="0.75" fill="#F5F7FF"/>
<circle id="Star_13" cx="990.75" cy="3376.75" r="0.75" fill="#F5F7FF"/>
<circle id="Star_14" cx="503.75" cy="1184.75" r="0.75" fill="#F5F7FF"/>
<circle id="Star_15" cx="1179" cy="275" r="1" fill="#F5F7FF"/>
<circle id="Star_16" cx="1434.5" cy="787.5" r="1.5" fill="#F5F7FF"/>
<circle id="Star_17" cx="196.75" cy="3313.75" r="0.75" fill="#F5F7FF"/>
<circle id="Star_18" cx="1094.75" cy="986.75" r="0.75" fill="#64D2FF"/>
<circle id="Star_19" cx="1.5" cy="2216.5" r="1.5" fill="#F5F7FF"/>
<circle id="Star_20" cx="341.75" cy="3170.75" r="0.75" fill="#F5F7FF"/>
<circle id="Star_21" cx="704" cy="6" r="1" fill="#F5F7FF"/>
<circle id="Star_22" cx="1295" cy="672" r="1" fill="#F5F7FF"/>
<circle id="Star_23" cx="320" cy="747" r="1" fill="#F5F7FF"/>
<circle id="Star_24" cx="1026.75" cy="1787.75" r="0.75" fill="#64D2FF"/>
<circle id="Star_25" cx="990" cy="3210" r="1" fill="#64D2FF"/>
<circle id="Star_26" cx="1372.75" cy="2748.75" r="0.75" fill="#F5F7FF"/>
<circle id="Star_27" cx="572.75" cy="839.75" r="0.75" fill="#F5F7FF"/>
<circle id="Star_28" cx="894" cy="2641" r="1" fill="#F5F7FF"/>
<circle id="Star_29" cx="448" cy="3543" r="1" fill="#F5F7FF"/>
<circle id="Star_30" cx="285.75" cy="2317.75" r="0.75" fill="#64D2FF"/>
<circle id="Star_31" cx="1360.75" cy="1729.75" r="0.75" fill="#64D2FF"/>
<circle id="Star_32" cx="749.75" cy="2015.75" r="0.75" fill="#F5F7FF"/>
<circle id="Star_33" cx="35.75" cy="1070.75" r="0.75" fill="#F5F7FF"/>
<circle id="Star_34" cx="338" cy="2369" r="1" fill="#F5F7FF"/>
<circle id="Star_35" cx="1316.75" cy="3270.75" r="0.75" fill="#F5F7FF"/>
<circle id="Star_36" cx="1096.5" cy="2159.5" r="1.5" fill="#F5F7FF"/>
<circle id="Star_37" cx="195.5" cy="284.5" r="1.5" fill="#64D2FF"/>
<circle id="Star_38" cx="870.5" cy="3400.5" r="1.5" fill="#64D2FF"/>
<circle id="Star_39" cx="348.75" cy="1637.75" r="0.75" fill="#F5F7FF"/>
<circle id="Star_40" cx="570.75" cy="1493.75" r="0.75" fill="#64D2FF"/>
<circle id="Star_41" cx="218.75" cy="3326.75" r="0.75" fill="#F5F7FF"/>
<circle id="Star_42" cx="244.75" cy="275.75" r="0.75" fill="#F5F7FF"/>
<circle id="Star_43" cx="1430" cy="266" r="1" fill="#F5F7FF"/>
<circle id="Star_44" cx="8.5" cy="1483.5" r="1.5" fill="#64D2FF"/>
<circle id="Star_45" cx="1098.75" cy="1567.75" r="0.75" fill="#F5F7FF"/>
<circle id="Star_46" cx="822.75" cy="1247.75" r="0.75" fill="#F5F7FF"/>
<circle id="Star_47" cx="1037.75" cy="2388.75" r="0.75" fill="#F5F7FF"/>
<circle id="Star_48" cx="1421.75" cy="1571.75" r="0.75" fill="#F5F7FF"/>
<circle id="Star_49" cx="113" cy="1229" r="1" fill="#F5F7FF"/>
<circle id="Star_50" cx="1131.75" cy="739.75" r="0.75" fill="#F5F7FF"/>
<circle id="Star_51" cx="1317.5" cy="2876.5" r="1.5" fill="#F5F7FF"/>
<circle id="Star_52" cx="1255" cy="2023" r="1" fill="#F5F7FF"/>
<circle id="Star_53" cx="568" cy="670" r="1" fill="#F5F7FF"/>
<circle id="Star_54" cx="485.75" cy="2452.75" r="0.75" fill="#F5F7FF"/>
<circle id="Star_55" cx="0.75" cy="469.75" r="0.75" fill="#F5F7FF"/>
<circle id="Star_56" cx="247.75" cy="757.75" r="0.75" fill="#F5F7FF"/>
<circle id="Star_57" cx="901" cy="52" r="1" fill="#F5F7FF"/>
<circle id="Star_58" cx="476" cy="2568" r="1" fill="#F5F7FF"/>
<circle id="Star_59" cx="1010.75" cy="2635.75" r="0.75" fill="#F5F7FF"/>
<circle id="Star_60" cx="882.5" cy="805.5" r="1.5" fill="#F5F7FF"/>
<circle id="Star_61" cx="904.75" cy="2920.75" r="0.75" fill="#F5F7FF"/>
<circle id="Star_62" cx="994.5" cy="1459.5" r="1.5" fill="#F5F7FF"/>
<circle id="Star_63" cx="1323" cy="1798" r="1" fill="#F5F7FF"/>
<circle id="Star_64" cx="1045.75" cy="3262.75" r="0.75" fill="#F5F7FF"/>
<circle id="Star_65" cx="179" cy="3410" r="1" fill="#F5F7FF"/>
<circle id="Star_66" cx="376.5" cy="3382.5" r="1.5" fill="#F5F7FF"/>
<circle id="Star_67" cx="42" cy="1686" r="1" fill="#F5F7FF"/>
<circle id="Star_68" cx="326" cy="193" r="1" fill="#64D2FF"/>
<circle id="Star_69" cx="1163" cy="2616" r="1" fill="#F5F7FF"/>
<circle id="Star_70" cx="1388.75" cy="2768.75" r="0.75" fill="#F5F7FF"/>
<circle id="Star_71" cx="245.75" cy="230.75" r="0.75" fill="#F5F7FF"/>
<circle id="Star_72" cx="555.75" cy="1774.75" r="0.75" fill="#64D2FF"/>
<circle id="Star_73" cx="509.5" cy="1236.5" r="1.5" fill="#F5F7FF"/>
<circle id="Star_74" cx="74.5" cy="1.5" r="1.5" fill="#F5F7FF"/>
<circle id="Star_75" cx="1105.5" cy="1141.5" r="1.5" fill="#F5F7FF"/>
<circle id="Star_76" cx="1429" cy="735" r="1" fill="#F5F7FF"/>
<circle id="Star_77" cx="248.5" cy="2714.5" r="1.5" fill="#F5F7FF"/>
<circle id="Star_78" cx="456.75" cy="1647.75" r="0.75" fill="#F5F7FF"/>
<circle id="Star_79" cx="975.75" cy="1789.75" r="0.75" fill="#F5F7FF"/>
<circle id="Star_80" cx="1395.75" cy="2483.75" r="0.75" fill="#F5F7FF"/>
<circle id="Star_81" cx="233.75" cy="3037.75" r="0.75" fill="#F5F7FF"/>
<circle id="Star_82" cx="1192.75" cy="147.75" r="0.75" fill="#F5F7FF"/>
<circle id="Star_83" cx="831.5" cy="2918.5" r="1.5" fill="#F5F7FF"/>
<circle id="Star_84" cx="297.75" cy="2019.75" r="0.75" fill="#F5F7FF"/>
<circle id="Star_85" cx="743.75" cy="1376.75" r="0.75" fill="#F5F7FF"/>
<circle id="Star_86" cx="426.75" cy="910.75" r="0.75" fill="#F5F7FF"/>
<circle id="Star_87" cx="453.75" cy="2155.75" r="0.75" fill="#F5F7FF"/>
<circle id="Star_88" cx="300" cy="421" r="1" fill="#F5F7FF"/>
<circle id="Star_89" cx="559.75" cy="1244.75" r="0.75" fill="#F5F7FF"/>
<circle id="Star_90" cx="685" cy="1348" r="1" fill="#64D2FF"/>
</g>
</svg>
